<svg width="30" height="24" viewBox="0 0 30 24" fill="none" xmlns="http://www.w3.org/2000/svg">
<path d="M24 21V24H3C2.20435 24 1.44129 23.6839 0.87868 23.1213C0.31607 22.5587 0 21.7956 0 21V6H3V21M30 3V15C30 15.7956 29.6839 16.5587 29.1213 17.1213C28.5587 17.6839 27.7956 18 27 18H9C8.20435 18 7.44129 17.6839 6.87868 17.1213C6.31607 16.5587 6 15.7956 6 15V3C6 2.20435 6.31607 1.44129 6.87868 0.87868C7.44129 0.31607 8.20435 0 9 0H27C27.7956 0 28.5587 0.31607 29.1213 0.87868C29.6839 1.44129 30 2.20435 30 3ZM27 3H9V15H27V3Z" fill="black"/>
</svg>
